<?xml version="1.0" encoding="UTF-8"?>
<svg xmlns="http://www.w3.org/2000/svg" xmlns:xlink="http://www.w3.org/1999/xlink" width="500" zoomAndPan="magnify" viewBox="0 0 375 187.499995" height="250" preserveAspectRatio="xMidYMid meet" version="1.2">
  <defs></defs>
  <g id="dcd21c9dfe">
    <g style="fill:#ffffff;fill-opacity:1;">
      <g transform="translate(109.058359, 117.611535)">
        <path style="stroke:none" d="M 16.984375 -17.921875 C 16.828125 -18.078125 16.535156 -18.289062 16.109375 -18.5625 C 15.691406 -18.832031 15.179688 -19.09375 14.578125 -19.34375 C 13.972656 -19.59375 13.316406 -19.816406 12.609375 -20.015625 C 11.910156 -20.210938 11.195312 -20.3125 10.46875 -20.3125 C 9.1875 -20.3125 8.21875 -20.070312 7.5625 -19.59375 C 6.914062 -19.113281 6.59375 -18.441406 6.59375 -17.578125 C 6.59375 -16.910156 6.796875 -16.382812 7.203125 -16 C 7.617188 -15.613281 8.238281 -15.28125 9.0625 -15 C 9.882812 -14.726562 10.910156 -14.4375 12.140625 -14.125 C 13.734375 -13.726562 15.113281 -13.25 16.28125 -12.6875 C 17.457031 -12.132812 18.359375 -11.40625 18.984375 -10.5 C 19.617188 -9.601562 19.9375 -8.414062 19.9375 -6.9375 C 19.9375 -5.632812 19.695312 -4.519531 19.21875 -3.59375 C 18.738281 -2.675781 18.078125 -1.929688 17.234375 -1.359375 C 16.390625 -0.796875 15.429688 -0.378906 14.359375 -0.109375 C 13.285156 0.148438 12.144531 0.28125 10.9375 0.28125 C 9.726562 0.28125 8.519531 0.15625 7.3125 -0.09375 C 6.101562 -0.351562 4.941406 -0.710938 3.828125 -1.171875 C 2.710938 -1.640625 1.6875 -2.207031 0.75 -2.875 L 2.84375 -6.9375 C 3.039062 -6.726562 3.398438 -6.457031 3.921875 -6.125 C 4.453125 -5.800781 5.09375 -5.472656 5.84375 -5.140625 C 6.59375 -4.816406 7.410156 -4.539062 8.296875 -4.3125 C 9.191406 -4.082031 10.097656 -3.96875 11.015625 -3.96875 C 12.285156 -3.96875 13.25 -4.179688 13.90625 -4.609375 C 14.570312 -5.046875 14.90625 -5.664062 14.90625 -6.46875 C 14.90625 -7.195312 14.640625 -7.765625 14.109375 -8.171875 C 13.585938 -8.578125 12.859375 -8.929688 11.921875 -9.234375 C 10.992188 -9.546875 9.890625 -9.882812 8.609375 -10.25 C 7.085938 -10.6875 5.8125 -11.171875 4.78125 -11.703125 C 3.757812 -12.242188 3 -12.921875 2.5 -13.734375 C 2 -14.554688 1.75 -15.582031 1.75 -16.8125 C 1.75 -18.476562 2.140625 -19.875 2.921875 -21 C 3.710938 -22.132812 4.78125 -22.988281 6.125 -23.5625 C 7.46875 -24.144531 8.957031 -24.4375 10.59375 -24.4375 C 11.738281 -24.4375 12.816406 -24.3125 13.828125 -24.0625 C 14.835938 -23.8125 15.785156 -23.484375 16.671875 -23.078125 C 17.566406 -22.671875 18.367188 -22.226562 19.078125 -21.75 Z M 16.984375 -17.921875 "></path>
      </g>
    </g>
    <g style="fill:#ffffff;fill-opacity:1;">
      <g transform="translate(138.554199, 117.611535)">
        <path style="stroke:none" d="M 12.890625 0.171875 C 11.109375 0.171875 9.492188 -0.164062 8.046875 -0.84375 C 6.597656 -1.53125 5.351562 -2.460938 4.3125 -3.640625 C 3.28125 -4.816406 2.476562 -6.140625 1.90625 -7.609375 C 1.34375 -9.078125 1.0625 -10.585938 1.0625 -12.140625 C 1.0625 -13.753906 1.363281 -15.296875 1.96875 -16.765625 C 2.570312 -18.234375 3.398438 -19.539062 4.453125 -20.6875 C 5.515625 -21.84375 6.769531 -22.753906 8.21875 -23.421875 C 9.664062 -24.097656 11.253906 -24.4375 12.984375 -24.4375 C 14.742188 -24.4375 16.347656 -24.082031 17.796875 -23.375 C 19.242188 -22.675781 20.476562 -21.734375 21.5 -20.546875 C 22.53125 -19.359375 23.328125 -18.035156 23.890625 -16.578125 C 24.460938 -15.117188 24.75 -13.613281 24.75 -12.0625 C 24.75 -10.46875 24.453125 -8.9375 23.859375 -7.46875 C 23.265625 -6 22.4375 -4.6875 21.375 -3.53125 C 20.320312 -2.382812 19.070312 -1.476562 17.625 -0.8125 C 16.175781 -0.15625 14.597656 0.171875 12.890625 0.171875 Z M 5.84375 -12.140625 C 5.84375 -11.085938 6 -10.070312 6.3125 -9.09375 C 6.632812 -8.113281 7.097656 -7.238281 7.703125 -6.46875 C 8.304688 -5.707031 9.046875 -5.101562 9.921875 -4.65625 C 10.804688 -4.21875 11.804688 -4 12.921875 -4 C 14.054688 -4 15.066406 -4.234375 15.953125 -4.703125 C 16.847656 -5.171875 17.59375 -5.796875 18.1875 -6.578125 C 18.78125 -7.367188 19.226562 -8.25 19.53125 -9.21875 C 19.84375 -10.1875 20 -11.160156 20 -12.140625 C 20 -13.179688 19.832031 -14.1875 19.5 -15.15625 C 19.175781 -16.125 18.710938 -16.988281 18.109375 -17.75 C 17.503906 -18.519531 16.757812 -19.125 15.875 -19.5625 C 15 -20.007812 14.015625 -20.234375 12.921875 -20.234375 C 11.753906 -20.234375 10.734375 -20 9.859375 -19.53125 C 8.984375 -19.070312 8.25 -18.453125 7.65625 -17.671875 C 7.0625 -16.898438 6.609375 -16.035156 6.296875 -15.078125 C 5.992188 -14.117188 5.84375 -13.140625 5.84375 -12.140625 Z M 5.84375 -12.140625 "></path>
      </g>
    </g>
    <g style="fill:#ffffff;fill-opacity:1;">
      <g transform="translate(172.936989, 117.611535)">
        <path style="stroke:none" d="M 2.53125 0 L 2.53125 -24.265625 L 7.25 -24.265625 L 7.25 -4.140625 L 19.625 -4.140625 L 19.625 0 Z M 2.53125 0 "></path>
      </g>
    </g>
    <g style="fill:#ffffff;fill-opacity:1;">
      <g transform="translate(201.441769, 117.611535)">
        <path style="stroke:none" d="M 12.828125 0.171875 C 10.890625 0.171875 9.238281 -0.148438 7.875 -0.796875 C 6.519531 -1.453125 5.425781 -2.347656 4.59375 -3.484375 C 3.757812 -4.628906 3.148438 -5.921875 2.765625 -7.359375 C 2.378906 -8.804688 2.1875 -10.316406 2.1875 -11.890625 L 2.1875 -24.265625 L 6.90625 -24.265625 L 6.90625 -11.890625 C 6.90625 -10.890625 7 -9.914062 7.1875 -8.96875 C 7.382812 -8.03125 7.710938 -7.179688 8.171875 -6.421875 C 8.628906 -5.671875 9.234375 -5.078125 9.984375 -4.640625 C 10.734375 -4.210938 11.664062 -4 12.78125 -4 C 13.925781 -4 14.878906 -4.21875 15.640625 -4.65625 C 16.398438 -5.101562 17.003906 -5.703125 17.453125 -6.453125 C 17.898438 -7.210938 18.222656 -8.0625 18.421875 -9 C 18.628906 -9.945312 18.734375 -10.910156 18.734375 -11.890625 L 18.734375 -24.265625 L 23.421875 -24.265625 L 23.421875 -11.890625 C 23.421875 -10.234375 23.21875 -8.675781 22.8125 -7.21875 C 22.414062 -5.757812 21.789062 -4.472656 20.9375 -3.359375 C 20.082031 -2.253906 18.984375 -1.390625 17.640625 -0.765625 C 16.296875 -0.140625 14.691406 0.171875 12.828125 0.171875 Z M 12.828125 0.171875 "></path>
      </g>
    </g>
    <g style="fill:#ffffff;fill-opacity:1;">
      <g transform="translate(235.619513, 117.611535)">
        <path style="stroke:none" d="M 20.6875 -20.140625 L 12.921875 -20.140625 L 12.921875 0 L 8.234375 0 L 8.234375 -20.140625 L 0.484375 -20.140625 L 0.484375 -24.265625 L 20.6875 -24.265625 Z M 20.6875 -20.140625 "></path>
      </g>
    </g>
    <g style="fill:#ffffff;fill-opacity:1;">
      <g transform="translate(265.320399, 117.611535)">
        <path style="stroke:none" d="M 2.53125 0 L 2.53125 -24.265625 L 7.25 -24.265625 L 7.25 0 Z M 2.53125 0 "></path>
      </g>
    </g>
    <g style="fill:#ffffff;fill-opacity:1;">
      <g transform="translate(283.641197, 117.611535)">
        <path style="stroke:none" d="M 12.890625 0.171875 C 11.109375 0.171875 9.492188 -0.164062 8.046875 -0.84375 C 6.597656 -1.53125 5.351562 -2.460938 4.3125 -3.640625 C 3.28125 -4.816406 2.476562 -6.140625 1.90625 -7.609375 C 1.34375 -9.078125 1.0625 -10.585938 1.0625 -12.140625 C 1.0625 -13.753906 1.363281 -15.296875 1.96875 -16.765625 C 2.570312 -18.234375 3.398438 -19.539062 4.453125 -20.6875 C 5.515625 -21.84375 6.769531 -22.753906 8.21875 -23.421875 C 9.664062 -24.097656 11.253906 -24.4375 12.984375 -24.4375 C 14.742188 -24.4375 16.347656 -24.082031 17.796875 -23.375 C 19.242188 -22.675781 20.476562 -21.734375 21.5 -20.546875 C 22.53125 -19.359375 23.328125 -18.035156 23.890625 -16.578125 C 24.460938 -15.117188 24.75 -13.613281 24.75 -12.0625 C 24.75 -10.46875 24.453125 -8.9375 23.859375 -7.46875 C 23.265625 -6 22.4375 -4.6875 21.375 -3.53125 C 20.320312 -2.382812 19.070312 -1.476562 17.625 -0.8125 C 16.175781 -0.15625 14.597656 0.171875 12.890625 0.171875 Z M 5.84375 -12.140625 C 5.84375 -11.085938 6 -10.070312 6.3125 -9.09375 C 6.632812 -8.113281 7.097656 -7.238281 7.703125 -6.46875 C 8.304688 -5.707031 9.046875 -5.101562 9.921875 -4.65625 C 10.804688 -4.21875 11.804688 -4 12.921875 -4 C 14.054688 -4 15.066406 -4.234375 15.953125 -4.703125 C 16.847656 -5.171875 17.59375 -5.796875 18.1875 -6.578125 C 18.78125 -7.367188 19.226562 -8.25 19.53125 -9.21875 C 19.84375 -10.1875 20 -11.160156 20 -12.140625 C 20 -13.179688 19.832031 -14.1875 19.5 -15.15625 C 19.175781 -16.125 18.710938 -16.988281 18.109375 -17.75 C 17.503906 -18.519531 16.757812 -19.125 15.875 -19.5625 C 15 -20.007812 14.015625 -20.234375 12.921875 -20.234375 C 11.753906 -20.234375 10.734375 -20 9.859375 -19.53125 C 8.984375 -19.070312 8.25 -18.453125 7.65625 -17.671875 C 7.0625 -16.898438 6.609375 -16.035156 6.296875 -15.078125 C 5.992188 -14.117188 5.84375 -13.140625 5.84375 -12.140625 Z M 5.84375 -12.140625 "></path>
      </g>
    </g>
    <g style="fill:#ffffff;fill-opacity:1;">
      <g transform="translate(318.023976, 117.611535)">
        <path style="stroke:none" d="M 7.25 -15.59375 L 7.25 0 L 2.53125 0 L 2.53125 -24.265625 L 6.296875 -24.265625 L 18.84375 -8.265625 L 18.84375 -24.234375 L 23.5625 -24.234375 L 23.5625 0 L 19.625 0 Z M 7.25 -15.59375 "></path>
      </g>
    </g>
    <g style="fill:#ffffff;fill-opacity:1;">
      <g transform="translate(352.645996, 117.611535)">
        <path style="stroke:none" d="M 16.984375 -17.921875 C 16.828125 -18.078125 16.535156 -18.289062 16.109375 -18.5625 C 15.691406 -18.832031 15.179688 -19.09375 14.578125 -19.34375 C 13.972656 -19.59375 13.316406 -19.816406 12.609375 -20.015625 C 11.910156 -20.210938 11.195312 -20.3125 10.46875 -20.3125 C 9.1875 -20.3125 8.21875 -20.070312 7.5625 -19.59375 C 6.914062 -19.113281 6.59375 -18.441406 6.59375 -17.578125 C 6.59375 -16.910156 6.796875 -16.382812 7.203125 -16 C 7.617188 -15.613281 8.238281 -15.28125 9.0625 -15 C 9.882812 -14.726562 10.910156 -14.4375 12.140625 -14.125 C 13.734375 -13.726562 15.113281 -13.25 16.28125 -12.6875 C 17.457031 -12.132812 18.359375 -11.40625 18.984375 -10.5 C 19.617188 -9.601562 19.9375 -8.414062 19.9375 -6.9375 C 19.9375 -5.632812 19.695312 -4.519531 19.21875 -3.59375 C 18.738281 -2.675781 18.078125 -1.929688 17.234375 -1.359375 C 16.390625 -0.796875 15.429688 -0.378906 14.359375 -0.109375 C 13.285156 0.148438 12.144531 0.28125 10.9375 0.28125 C 9.726562 0.28125 8.519531 0.15625 7.3125 -0.09375 C 6.101562 -0.351562 4.941406 -0.710938 3.828125 -1.171875 C 2.710938 -1.640625 1.6875 -2.207031 0.75 -2.875 L 2.84375 -6.9375 C 3.039062 -6.726562 3.398438 -6.457031 3.921875 -6.125 C 4.453125 -5.800781 5.09375 -5.472656 5.84375 -5.140625 C 6.59375 -4.816406 7.410156 -4.539062 8.296875 -4.3125 C 9.191406 -4.082031 10.097656 -3.96875 11.015625 -3.96875 C 12.285156 -3.96875 13.25 -4.179688 13.90625 -4.609375 C 14.570312 -5.046875 14.90625 -5.664062 14.90625 -6.46875 C 14.90625 -7.195312 14.640625 -7.765625 14.109375 -8.171875 C 13.585938 -8.578125 12.859375 -8.929688 11.921875 -9.234375 C 10.992188 -9.546875 9.890625 -9.882812 8.609375 -10.25 C 7.085938 -10.6875 5.8125 -11.171875 4.78125 -11.703125 C 3.757812 -12.242188 3 -12.921875 2.5 -13.734375 C 2 -14.554688 1.75 -15.582031 1.75 -16.8125 C 1.75 -18.476562 2.140625 -19.875 2.921875 -21 C 3.710938 -22.132812 4.78125 -22.988281 6.125 -23.5625 C 7.46875 -24.144531 8.957031 -24.4375 10.59375 -24.4375 C 11.738281 -24.4375 12.816406 -24.3125 13.828125 -24.0625 C 14.835938 -23.8125 15.785156 -23.484375 16.671875 -23.078125 C 17.566406 -22.671875 18.367188 -22.226562 19.078125 -21.75 Z M 16.984375 -17.921875 "></path>
      </g>
    </g>
    <g style="fill:#663399;fill-opacity:1;">
      <g transform="translate(0.498675, 127.76202)">
        <path style="stroke:none" d="M 4.625 -12.109375 C 6.53125 -10.742188 9.046875 -9.5625 12.171875 -8.5625 C 15.304688 -7.570312 18.914062 -7.078125 23 -7.078125 C 27.71875 -7.078125 31.523438 -7.867188 34.421875 -9.453125 C 37.328125 -11.046875 39.550781 -13.453125 41.09375 -16.671875 C 42.632812 -19.890625 43.675781 -23.898438 44.21875 -28.703125 C 44.769531 -33.515625 45.046875 -39.144531 45.046875 -45.59375 L 45.046875 -96.609375 L 54.5625 -96.609375 L 54.5625 -47.484375 C 54.5625 -40.234375 54.195312 -33.613281 53.46875 -27.625 C 52.75 -21.632812 51.34375 -16.460938 49.25 -12.109375 C 47.164062 -7.753906 44.035156 -4.394531 39.859375 -2.03125 C 35.691406 0.320312 30.160156 1.5 23.265625 1.5 C 18.816406 1.5 14.867188 1 11.421875 0 C 7.984375 -1 4.8125 -2.492188 1.90625 -4.484375 Z M 4.625 -12.109375 "></path>
      </g>
    </g>
    <g style="fill:#663399;fill-opacity:1;">
      <g transform="translate(15.981953, 152.010646)">
        <path style="stroke:none" d="M 68.578125 -78.515625 C 67.222656 -80.054688 65.632812 -81.4375 63.8125 -82.65625 C 62 -83.882812 59.957031 -84.953125 57.6875 -85.859375 C 55.425781 -86.765625 53 -87.488281 50.40625 -88.03125 C 47.820312 -88.582031 45.082031 -88.859375 42.1875 -88.859375 C 33.75 -88.859375 27.554688 -87.25 23.609375 -84.03125 C 19.660156 -80.8125 17.6875 -76.429688 17.6875 -70.890625 C 17.6875 -67.085938 18.613281 -64.097656 20.46875 -61.921875 C 22.332031 -59.742188 25.257812 -57.972656 29.25 -56.609375 C 33.25 -55.242188 38.332031 -53.835938 44.5 -52.390625 C 51.394531 -50.941406 57.335938 -49.21875 62.328125 -47.21875 C 67.316406 -45.21875 71.171875 -42.515625 73.890625 -39.109375 C 76.609375 -35.710938 77.96875 -31.113281 77.96875 -25.3125 C 77.96875 -20.863281 77.101562 -17.003906 75.375 -13.734375 C 73.65625 -10.472656 71.253906 -7.753906 68.171875 -5.578125 C 65.085938 -3.398438 61.410156 -1.789062 57.140625 -0.75 C 52.878906 0.289062 48.210938 0.8125 43.140625 0.8125 C 38.148438 0.8125 33.363281 0.289062 28.78125 -0.75 C 24.195312 -1.789062 19.863281 -3.332031 15.78125 -5.375 C 11.695312 -7.414062 7.890625 -10.023438 4.359375 -13.203125 L 9.125 -20.953125 C 10.84375 -19.140625 12.90625 -17.4375 15.3125 -15.84375 C 17.71875 -14.257812 20.394531 -12.832031 23.34375 -11.5625 C 26.289062 -10.289062 29.460938 -9.316406 32.859375 -8.640625 C 36.265625 -7.960938 39.78125 -7.625 43.40625 -7.625 C 51.113281 -7.625 57.125 -9.03125 61.4375 -11.84375 C 65.75 -14.65625 67.90625 -18.828125 67.90625 -24.359375 C 67.90625 -28.347656 66.816406 -31.546875 64.640625 -33.953125 C 62.460938 -36.359375 59.195312 -38.332031 54.84375 -39.875 C 50.488281 -41.414062 45.132812 -42.910156 38.78125 -44.359375 C 32.070312 -45.898438 26.398438 -47.625 21.765625 -49.53125 C 17.140625 -51.4375 13.671875 -53.953125 11.359375 -57.078125 C 9.046875 -60.210938 7.890625 -64.363281 7.890625 -69.53125 C 7.890625 -75.519531 9.363281 -80.578125 12.3125 -84.703125 C 15.257812 -88.835938 19.316406 -91.96875 24.484375 -94.09375 C 29.660156 -96.226562 35.601562 -97.296875 42.3125 -97.296875 C 46.582031 -97.296875 50.550781 -96.863281 54.21875 -96 C 57.894531 -95.132812 61.296875 -93.882812 64.421875 -92.25 C 67.554688 -90.625 70.484375 -88.585938 73.203125 -86.140625 Z M 68.578125 -78.515625 "></path>
      </g>
    </g>
  </g>
</svg>
